<?xml version="1.0" encoding="UTF-8" standalone="no"?>
<!DOCTYPE svg PUBLIC "-//W3C//DTD SVG 1.1//EN"
 "http://www.w3.org/Graphics/SVG/1.1/DTD/svg11.dtd">
<!-- Generated by graphviz version 5.0.0 (20220707.1540)
 -->
<!-- Title: dependencies Pages: 1 -->
<svg width="2768pt" height="247pt"
 viewBox="0.00 0.00 2768.00 246.80" xmlns="http://www.w3.org/2000/svg" xmlns:xlink="http://www.w3.org/1999/xlink">
<g id="graph0" class="graph" transform="scale(1 1) rotate(0) translate(4 242.8)">
<title>dependencies</title>
<polygon fill="white" stroke="transparent" points="-4,4 -4,-242.8 2764,-242.8 2764,4 -4,4"/>
<text text-anchor="middle" x="1380" y="-8.2" font-family="sans-serif" font-size="14.00">dependencies</text>
<g id="clust1" class="cluster">
<title>cluster_AppModule</title>
<polygon fill="none" stroke="black" stroke-dasharray="1,5" points="8,-32.8 8,-230.8 2752,-230.8 2752,-32.8 8,-32.8"/>
</g>
<g id="clust22" class="cluster">
<title>cluster_AppModule_providers</title>
<polygon fill="none" stroke="black" points="2564,-40.8 2564,-92.8 2744,-92.8 2744,-40.8 2564,-40.8"/>
</g>
<g id="clust19" class="cluster">
<title>cluster_AppModule_imports</title>
<polygon fill="none" stroke="black" points="2412,-40.8 2412,-92.8 2556,-92.8 2556,-40.8 2412,-40.8"/>
</g>
<g id="clust21" class="cluster">
<title>cluster_AppModule_bootstrap</title>
<polygon fill="none" stroke="black" points="1298,-170.8 1298,-222.8 1422,-222.8 1422,-170.8 1298,-170.8"/>
</g>
<g id="clust2" class="cluster">
<title>cluster_AppModule_declarations</title>
<polygon fill="none" stroke="black" points="16,-40.8 16,-92.8 2404,-92.8 2404,-40.8 16,-40.8"/>
</g>
<!-- AppComponent -->
<g id="node1" class="node">
<title>AppComponent</title>
<polygon fill="#ffffb3" stroke="black" points="2395.94,-84.8 2290.06,-84.8 2290.06,-48.8 2395.94,-48.8 2395.94,-84.8"/>
<text text-anchor="middle" x="2343" y="-62.6" font-family="Times,serif" font-size="14.00">AppComponent</text>
</g>
<!-- AppModule -->
<g id="node17" class="node">
<title>AppModule</title>
<polygon fill="#8dd3c7" stroke="black" points="1401.66,-149.8 1398.66,-153.8 1377.66,-153.8 1374.66,-149.8 1318.34,-149.8 1318.34,-113.8 1401.66,-113.8 1401.66,-149.8"/>
<text text-anchor="middle" x="1360" y="-127.6" font-family="Times,serif" font-size="14.00">AppModule</text>
</g>
<!-- AppComponent&#45;&gt;AppModule -->
<g id="edge1" class="edge">
<title>AppComponent&#45;&gt;AppModule</title>
<path fill="none" stroke="black" d="M2343,-85.08C2343,-106.12 2343,-137.8 2343,-137.8 2343,-137.8 1411.92,-137.8 1411.92,-137.8"/>
<polygon fill="black" stroke="black" points="1411.92,-134.3 1401.92,-137.8 1411.92,-141.3 1411.92,-134.3"/>
</g>
<!-- BusinessComponent -->
<g id="node2" class="node">
<title>BusinessComponent</title>
<polygon fill="#ffffb3" stroke="black" points="2272.62,-84.8 2141.38,-84.8 2141.38,-48.8 2272.62,-48.8 2272.62,-84.8"/>
<text text-anchor="middle" x="2207" y="-62.6" font-family="Times,serif" font-size="14.00">BusinessComponent</text>
</g>
<!-- BusinessComponent&#45;&gt;AppModule -->
<g id="edge2" class="edge">
<title>BusinessComponent&#45;&gt;AppModule</title>
<path fill="none" stroke="black" d="M2207,-85.11C2207,-104.95 2207,-133.8 2207,-133.8 2207,-133.8 1411.71,-133.8 1411.71,-133.8"/>
<polygon fill="black" stroke="black" points="1411.71,-130.3 1401.71,-133.8 1411.71,-137.3 1411.71,-130.3"/>
</g>
<!-- CountryNewsComponent -->
<g id="node3" class="node">
<title>CountryNewsComponent</title>
<polygon fill="#ffffb3" stroke="black" points="2123.6,-84.8 1964.4,-84.8 1964.4,-48.8 2123.6,-48.8 2123.6,-84.8"/>
<text text-anchor="middle" x="2044" y="-62.6" font-family="Times,serif" font-size="14.00">CountryNewsComponent</text>
</g>
<!-- CountryNewsComponent&#45;&gt;AppModule -->
<g id="edge3" class="edge">
<title>CountryNewsComponent&#45;&gt;AppModule</title>
<path fill="none" stroke="black" d="M2044,-85.02C2044,-103.63 2044,-129.8 2044,-129.8 2044,-129.8 1411.76,-129.8 1411.76,-129.8"/>
<polygon fill="black" stroke="black" points="1411.76,-126.3 1401.76,-129.8 1411.76,-133.3 1411.76,-126.3"/>
</g>
<!-- FooterComponent -->
<g id="node4" class="node">
<title>FooterComponent</title>
<polygon fill="#ffffb3" stroke="black" points="1946.88,-84.8 1829.12,-84.8 1829.12,-48.8 1946.88,-48.8 1946.88,-84.8"/>
<text text-anchor="middle" x="1888" y="-62.6" font-family="Times,serif" font-size="14.00">FooterComponent</text>
</g>
<!-- FooterComponent&#45;&gt;AppModule -->
<g id="edge4" class="edge">
<title>FooterComponent&#45;&gt;AppModule</title>
<path fill="none" stroke="black" d="M1888,-84.82C1888,-102.17 1888,-125.8 1888,-125.8 1888,-125.8 1411.87,-125.8 1411.87,-125.8"/>
<polygon fill="black" stroke="black" points="1411.87,-122.3 1401.87,-125.8 1411.87,-129.3 1411.87,-122.3"/>
</g>
<!-- HeaderNavbarComponent -->
<g id="node5" class="node">
<title>HeaderNavbarComponent</title>
<polygon fill="#ffffb3" stroke="black" points="1811.45,-84.8 1648.55,-84.8 1648.55,-48.8 1811.45,-48.8 1811.45,-84.8"/>
<text text-anchor="middle" x="1730" y="-62.6" font-family="Times,serif" font-size="14.00">HeaderNavbarComponent</text>
</g>
<!-- HeaderNavbarComponent&#45;&gt;AppModule -->
<g id="edge5" class="edge">
<title>HeaderNavbarComponent&#45;&gt;AppModule</title>
<path fill="none" stroke="black" d="M1730,-84.81C1730,-100.85 1730,-121.8 1730,-121.8 1730,-121.8 1411.72,-121.8 1411.72,-121.8"/>
<polygon fill="black" stroke="black" points="1411.72,-118.3 1401.72,-121.8 1411.72,-125.3 1411.72,-118.3"/>
</g>
<!-- HomeComponent -->
<g id="node6" class="node">
<title>HomeComponent</title>
<polygon fill="#ffffb3" stroke="black" points="1630.55,-84.8 1515.45,-84.8 1515.45,-48.8 1630.55,-48.8 1630.55,-84.8"/>
<text text-anchor="middle" x="1573" y="-62.6" font-family="Times,serif" font-size="14.00">HomeComponent</text>
</g>
<!-- HomeComponent&#45;&gt;AppModule -->
<g id="edge6" class="edge">
<title>HomeComponent&#45;&gt;AppModule</title>
<path fill="none" stroke="black" d="M1573,-84.92C1573,-99.58 1573,-117.8 1573,-117.8 1573,-117.8 1411.83,-117.8 1411.83,-117.8"/>
<polygon fill="black" stroke="black" points="1411.83,-114.3 1401.83,-117.8 1411.83,-121.3 1411.83,-114.3"/>
</g>
<!-- ManchetComponent -->
<g id="node7" class="node">
<title>ManchetComponent</title>
<polygon fill="#ffffb3" stroke="black" points="1497.31,-84.8 1366.69,-84.8 1366.69,-48.8 1497.31,-48.8 1497.31,-84.8"/>
<text text-anchor="middle" x="1432" y="-62.6" font-family="Times,serif" font-size="14.00">ManchetComponent</text>
</g>
<!-- ManchetComponent&#45;&gt;AppModule -->
<g id="edge7" class="edge">
<title>ManchetComponent&#45;&gt;AppModule</title>
<path fill="none" stroke="black" d="M1384.34,-84.91C1384.34,-84.91 1384.34,-103.79 1384.34,-103.79"/>
<polygon fill="black" stroke="black" points="1380.84,-103.79 1384.34,-113.79 1387.84,-103.79 1380.84,-103.79"/>
</g>
<!-- NavbarComponent -->
<g id="node8" class="node">
<title>NavbarComponent</title>
<polygon fill="#ffffb3" stroke="black" points="1349.03,-84.8 1226.97,-84.8 1226.97,-48.8 1349.03,-48.8 1349.03,-84.8"/>
<text text-anchor="middle" x="1288" y="-62.6" font-family="Times,serif" font-size="14.00">NavbarComponent</text>
</g>
<!-- NavbarComponent&#45;&gt;AppModule -->
<g id="edge8" class="edge">
<title>NavbarComponent&#45;&gt;AppModule</title>
<path fill="none" stroke="black" d="M1333.72,-84.91C1333.72,-84.91 1333.72,-103.79 1333.72,-103.79"/>
<polygon fill="black" stroke="black" points="1330.22,-103.79 1333.72,-113.79 1337.22,-103.79 1330.22,-103.79"/>
</g>
<!-- NewsPageComponent -->
<g id="node9" class="node">
<title>NewsPageComponent</title>
<polygon fill="#ffffb3" stroke="black" points="1209.43,-84.8 1068.57,-84.8 1068.57,-48.8 1209.43,-48.8 1209.43,-84.8"/>
<text text-anchor="middle" x="1139" y="-62.6" font-family="Times,serif" font-size="14.00">NewsPageComponent</text>
</g>
<!-- NewsPageComponent&#45;&gt;AppModule -->
<g id="edge9" class="edge">
<title>NewsPageComponent&#45;&gt;AppModule</title>
<path fill="none" stroke="black" d="M1139,-84.92C1139,-99.58 1139,-117.8 1139,-117.8 1139,-117.8 1308.17,-117.8 1308.17,-117.8"/>
<polygon fill="black" stroke="black" points="1308.17,-121.3 1318.17,-117.8 1308.17,-114.3 1308.17,-121.3"/>
</g>
<!-- NotFoundComponent -->
<g id="node10" class="node">
<title>NotFoundComponent</title>
<polygon fill="#ffffb3" stroke="black" points="1051.12,-84.8 912.88,-84.8 912.88,-48.8 1051.12,-48.8 1051.12,-84.8"/>
<text text-anchor="middle" x="982" y="-62.6" font-family="Times,serif" font-size="14.00">NotFoundComponent</text>
</g>
<!-- NotFoundComponent&#45;&gt;AppModule -->
<g id="edge10" class="edge">
<title>NotFoundComponent&#45;&gt;AppModule</title>
<path fill="none" stroke="black" d="M982,-84.81C982,-100.85 982,-121.8 982,-121.8 982,-121.8 1308.1,-121.8 1308.1,-121.8"/>
<polygon fill="black" stroke="black" points="1308.1,-125.3 1318.1,-121.8 1308.1,-118.3 1308.1,-125.3"/>
</g>
<!-- PoliticsComponent -->
<g id="node11" class="node">
<title>PoliticsComponent</title>
<polygon fill="#ffffb3" stroke="black" points="894.84,-84.8 771.16,-84.8 771.16,-48.8 894.84,-48.8 894.84,-84.8"/>
<text text-anchor="middle" x="833" y="-62.6" font-family="Times,serif" font-size="14.00">PoliticsComponent</text>
</g>
<!-- PoliticsComponent&#45;&gt;AppModule -->
<g id="edge11" class="edge">
<title>PoliticsComponent&#45;&gt;AppModule</title>
<path fill="none" stroke="black" d="M833,-84.82C833,-102.17 833,-125.8 833,-125.8 833,-125.8 1308.21,-125.8 1308.21,-125.8"/>
<polygon fill="black" stroke="black" points="1308.21,-129.3 1318.21,-125.8 1308.21,-122.3 1308.21,-129.3"/>
</g>
<!-- ReadingComponent -->
<g id="node12" class="node">
<title>ReadingComponent</title>
<polygon fill="#ffffb3" stroke="black" points="752.99,-84.8 625.01,-84.8 625.01,-48.8 752.99,-48.8 752.99,-84.8"/>
<text text-anchor="middle" x="689" y="-62.6" font-family="Times,serif" font-size="14.00">ReadingComponent</text>
</g>
<!-- ReadingComponent&#45;&gt;AppModule -->
<g id="edge12" class="edge">
<title>ReadingComponent&#45;&gt;AppModule</title>
<path fill="none" stroke="black" d="M689,-85.02C689,-103.63 689,-129.8 689,-129.8 689,-129.8 1308.28,-129.8 1308.28,-129.8"/>
<polygon fill="black" stroke="black" points="1308.28,-133.3 1318.28,-129.8 1308.28,-126.3 1308.28,-133.3"/>
</g>
<!-- SportsComponent -->
<g id="node13" class="node">
<title>SportsComponent</title>
<polygon fill="#ffffb3" stroke="black" points="606.62,-84.8 489.38,-84.8 489.38,-48.8 606.62,-48.8 606.62,-84.8"/>
<text text-anchor="middle" x="548" y="-62.6" font-family="Times,serif" font-size="14.00">SportsComponent</text>
</g>
<!-- SportsComponent&#45;&gt;AppModule -->
<g id="edge13" class="edge">
<title>SportsComponent&#45;&gt;AppModule</title>
<path fill="none" stroke="black" d="M548,-85.11C548,-104.95 548,-133.8 548,-133.8 548,-133.8 1308.34,-133.8 1308.34,-133.8"/>
<polygon fill="black" stroke="black" points="1308.34,-137.3 1318.34,-133.8 1308.34,-130.3 1308.34,-137.3"/>
</g>
<!-- TechnologyComponent -->
<g id="node14" class="node">
<title>TechnologyComponent</title>
<polygon fill="#ffffb3" stroke="black" points="471.2,-84.8 322.8,-84.8 322.8,-48.8 471.2,-48.8 471.2,-84.8"/>
<text text-anchor="middle" x="397" y="-62.6" font-family="Times,serif" font-size="14.00">TechnologyComponent</text>
</g>
<!-- TechnologyComponent&#45;&gt;AppModule -->
<g id="edge14" class="edge">
<title>TechnologyComponent&#45;&gt;AppModule</title>
<path fill="none" stroke="black" d="M397,-85.08C397,-106.12 397,-137.8 397,-137.8 397,-137.8 1308.31,-137.8 1308.31,-137.8"/>
<polygon fill="black" stroke="black" points="1308.31,-141.3 1318.31,-137.8 1308.31,-134.3 1308.31,-141.3"/>
</g>
<!-- TopicNewsComponent -->
<g id="node15" class="node">
<title>TopicNewsComponent</title>
<polygon fill="#ffffb3" stroke="black" points="304.87,-84.8 159.13,-84.8 159.13,-48.8 304.87,-48.8 304.87,-84.8"/>
<text text-anchor="middle" x="232" y="-62.6" font-family="Times,serif" font-size="14.00">TopicNewsComponent</text>
</g>
<!-- TopicNewsComponent&#45;&gt;AppModule -->
<g id="edge15" class="edge">
<title>TopicNewsComponent&#45;&gt;AppModule</title>
<path fill="none" stroke="black" d="M232,-84.96C232,-107.15 232,-141.8 232,-141.8 232,-141.8 1308.18,-141.8 1308.18,-141.8"/>
<polygon fill="black" stroke="black" points="1308.18,-145.3 1318.18,-141.8 1308.18,-138.3 1308.18,-145.3"/>
</g>
<!-- WorldComponent -->
<g id="node16" class="node">
<title>WorldComponent</title>
<polygon fill="#ffffb3" stroke="black" points="141.6,-84.8 24.4,-84.8 24.4,-48.8 141.6,-48.8 141.6,-84.8"/>
<text text-anchor="middle" x="83" y="-62.6" font-family="Times,serif" font-size="14.00">WorldComponent</text>
</g>
<!-- WorldComponent&#45;&gt;AppModule -->
<g id="edge16" class="edge">
<title>WorldComponent&#45;&gt;AppModule</title>
<path fill="none" stroke="black" d="M83,-85.12C83,-108.46 83,-145.8 83,-145.8 83,-145.8 1308.24,-145.8 1308.24,-145.8"/>
<polygon fill="black" stroke="black" points="1308.24,-149.3 1318.24,-145.8 1308.24,-142.3 1308.24,-149.3"/>
</g>
<!-- AppComponent  -->
<g id="node19" class="node">
<title>AppComponent </title>
<polygon fill="#80b1d3" stroke="black" points="1414.44,-214.8 1305.56,-214.8 1305.56,-178.8 1414.44,-178.8 1414.44,-214.8"/>
<text text-anchor="middle" x="1360" y="-192.6" font-family="Times,serif" font-size="14.00">AppComponent </text>
</g>
<!-- AppModule&#45;&gt;AppComponent  -->
<g id="edge18" class="edge">
<title>AppModule&#45;&gt;AppComponent </title>
<path fill="none" stroke="black" stroke-dasharray="1,5" d="M1360,-149.91C1360,-149.91 1360,-168.79 1360,-168.79"/>
<polygon fill="black" stroke="black" points="1356.5,-168.79 1360,-178.79 1363.5,-168.79 1356.5,-168.79"/>
</g>
<!-- AppRoutingModule -->
<g id="node18" class="node">
<title>AppRoutingModule</title>
<polygon fill="#8dd3c7" stroke="black" points="2548.28,-84.8 2545.28,-88.8 2524.28,-88.8 2521.28,-84.8 2419.72,-84.8 2419.72,-48.8 2548.28,-48.8 2548.28,-84.8"/>
<text text-anchor="middle" x="2484" y="-62.6" font-family="Times,serif" font-size="14.00">AppRoutingModule</text>
</g>
<!-- AppRoutingModule&#45;&gt;AppModule -->
<g id="edge17" class="edge">
<title>AppRoutingModule&#45;&gt;AppModule</title>
<path fill="none" stroke="black" d="M2484,-84.96C2484,-107.15 2484,-141.8 2484,-141.8 2484,-141.8 1411.67,-141.8 1411.67,-141.8"/>
<polygon fill="black" stroke="black" points="1411.67,-138.3 1401.67,-141.8 1411.67,-145.3 1411.67,-138.3"/>
</g>
<!-- InterceptorService -->
<g id="node20" class="node">
<title>InterceptorService</title>
<ellipse fill="#fdb462" stroke="black" cx="2654" cy="-66.8" rx="82.2" ry="18"/>
<text text-anchor="middle" x="2654" y="-62.6" font-family="Times,serif" font-size="14.00">InterceptorService</text>
</g>
<!-- InterceptorService&#45;&gt;AppModule -->
<g id="edge19" class="edge">
<title>InterceptorService&#45;&gt;AppModule</title>
<path fill="none" stroke="black" d="M2654,-85.12C2654,-108.46 2654,-145.8 2654,-145.8 2654,-145.8 1411.95,-145.8 1411.95,-145.8"/>
<polygon fill="black" stroke="black" points="1411.95,-142.3 1401.95,-145.8 1411.95,-149.3 1411.95,-142.3"/>
</g>
</g>
</svg>
