<?xml version="1.0" encoding="UTF-8" standalone="no"?>
<!DOCTYPE svg PUBLIC "-//W3C//DTD SVG 1.1//EN"
 "http://www.w3.org/Graphics/SVG/1.1/DTD/svg11.dtd">
<!-- Generated by graphviz version 5.0.0 (20220707.1540)
 -->
<!-- Title: dependencies Pages: 1 -->
<svg width="3224pt" height="247pt"
 viewBox="0.00 0.00 3224.00 246.80" xmlns="http://www.w3.org/2000/svg" xmlns:xlink="http://www.w3.org/1999/xlink">
<g id="graph0" class="graph" transform="scale(1 1) rotate(0) translate(4 242.8)">
<title>dependencies</title>
<polygon fill="white" stroke="transparent" points="-4,4 -4,-242.8 3220,-242.8 3220,4 -4,4"/>
<text text-anchor="middle" x="1608" y="-8.2" font-family="sans-serif" font-size="14.00">dependencies</text>
<g id="clust1" class="cluster">
<title>cluster_AppModule</title>
<polygon fill="none" stroke="black" stroke-dasharray="1,5" points="8,-32.8 8,-230.8 2752,-230.8 2752,-32.8 8,-32.8"/>
</g>
<g id="clust2" class="cluster">
<title>cluster_AppModule_declarations</title>
<polygon fill="none" stroke="black" points="356,-40.8 356,-92.8 2744,-92.8 2744,-40.8 356,-40.8"/>
</g>
<g id="clust19" class="cluster">
<title>cluster_AppModule_imports</title>
<polygon fill="none" stroke="black" points="204,-40.8 204,-92.8 348,-92.8 348,-40.8 204,-40.8"/>
</g>
<g id="clust21" class="cluster">
<title>cluster_AppModule_bootstrap</title>
<polygon fill="none" stroke="black" points="1338,-170.8 1338,-222.8 1462,-222.8 1462,-170.8 1338,-170.8"/>
</g>
<g id="clust22" class="cluster">
<title>cluster_AppModule_providers</title>
<polygon fill="none" stroke="black" points="16,-40.8 16,-92.8 196,-92.8 196,-40.8 16,-40.8"/>
</g>
<g id="clust29" class="cluster">
<title>cluster_AuthModule</title>
<polygon fill="none" stroke="black" stroke-dasharray="1,5" points="2760,-32.8 2760,-157.8 3208,-157.8 3208,-32.8 2760,-32.8"/>
</g>
<g id="clust30" class="cluster">
<title>cluster_AuthModule_declarations</title>
<polygon fill="none" stroke="black" points="2924,-40.8 2924,-92.8 3200,-92.8 3200,-40.8 2924,-40.8"/>
</g>
<g id="clust33" class="cluster">
<title>cluster_AuthModule_imports</title>
<polygon fill="none" stroke="black" points="2768,-40.8 2768,-92.8 2916,-92.8 2916,-40.8 2768,-40.8"/>
</g>
<!-- AppComponent -->
<g id="node1" class="node">
<title>AppComponent</title>
<polygon fill="#ffffb3" stroke="black" points="2735.94,-84.8 2630.06,-84.8 2630.06,-48.8 2735.94,-48.8 2735.94,-84.8"/>
<text text-anchor="middle" x="2683" y="-62.6" font-family="Times,serif" font-size="14.00">AppComponent</text>
</g>
<!-- AppModule -->
<g id="node17" class="node">
<title>AppModule</title>
<polygon fill="#8dd3c7" stroke="black" points="1441.66,-149.8 1438.66,-153.8 1417.66,-153.8 1414.66,-149.8 1358.34,-149.8 1358.34,-113.8 1441.66,-113.8 1441.66,-149.8"/>
<text text-anchor="middle" x="1400" y="-127.6" font-family="Times,serif" font-size="14.00">AppModule</text>
</g>
<!-- AppComponent&#45;&gt;AppModule -->
<g id="edge1" class="edge">
<title>AppComponent&#45;&gt;AppModule</title>
<path fill="none" stroke="black" d="M2683,-84.81C2683,-107.29 2683,-142.8 2683,-142.8 2683,-142.8 1451.96,-142.8 1451.96,-142.8"/>
<polygon fill="black" stroke="black" points="1451.96,-139.3 1441.96,-142.8 1451.96,-146.3 1451.96,-139.3"/>
</g>
<!-- BusinessComponent -->
<g id="node2" class="node">
<title>BusinessComponent</title>
<polygon fill="#ffffb3" stroke="black" points="2612.62,-84.8 2481.38,-84.8 2481.38,-48.8 2612.62,-48.8 2612.62,-84.8"/>
<text text-anchor="middle" x="2547" y="-62.6" font-family="Times,serif" font-size="14.00">BusinessComponent</text>
</g>
<!-- BusinessComponent&#45;&gt;AppModule -->
<g id="edge2" class="edge">
<title>BusinessComponent&#45;&gt;AppModule</title>
<path fill="none" stroke="black" d="M2547,-84.84C2547,-106.46 2547,-139.8 2547,-139.8 2547,-139.8 1451.84,-139.8 1451.84,-139.8"/>
<polygon fill="black" stroke="black" points="1451.84,-136.3 1441.84,-139.8 1451.84,-143.3 1451.84,-136.3"/>
</g>
<!-- CountryNewsComponent -->
<g id="node3" class="node">
<title>CountryNewsComponent</title>
<polygon fill="#ffffb3" stroke="black" points="2463.6,-84.8 2304.4,-84.8 2304.4,-48.8 2463.6,-48.8 2463.6,-84.8"/>
<text text-anchor="middle" x="2384" y="-62.6" font-family="Times,serif" font-size="14.00">CountryNewsComponent</text>
</g>
<!-- CountryNewsComponent&#45;&gt;AppModule -->
<g id="edge3" class="edge">
<title>CountryNewsComponent&#45;&gt;AppModule</title>
<path fill="none" stroke="black" d="M2384,-84.93C2384,-105.37 2384,-135.8 2384,-135.8 2384,-135.8 1451.97,-135.8 1451.97,-135.8"/>
<polygon fill="black" stroke="black" points="1451.97,-132.3 1441.97,-135.8 1451.97,-139.3 1451.97,-132.3"/>
</g>
<!-- FooterComponent -->
<g id="node4" class="node">
<title>FooterComponent</title>
<polygon fill="#ffffb3" stroke="black" points="2286.88,-84.8 2169.12,-84.8 2169.12,-48.8 2286.88,-48.8 2286.88,-84.8"/>
<text text-anchor="middle" x="2228" y="-62.6" font-family="Times,serif" font-size="14.00">FooterComponent</text>
</g>
<!-- FooterComponent&#45;&gt;AppModule -->
<g id="edge4" class="edge">
<title>FooterComponent&#45;&gt;AppModule</title>
<path fill="none" stroke="black" d="M2228,-84.91C2228,-104.14 2228,-131.8 2228,-131.8 2228,-131.8 1451.91,-131.8 1451.91,-131.8"/>
<polygon fill="black" stroke="black" points="1451.91,-128.3 1441.91,-131.8 1451.91,-135.3 1451.91,-128.3"/>
</g>
<!-- HeaderNavbarComponent -->
<g id="node5" class="node">
<title>HeaderNavbarComponent</title>
<polygon fill="#ffffb3" stroke="black" points="2151.45,-84.8 1988.55,-84.8 1988.55,-48.8 2151.45,-48.8 2151.45,-84.8"/>
<text text-anchor="middle" x="2070" y="-62.6" font-family="Times,serif" font-size="14.00">HeaderNavbarComponent</text>
</g>
<!-- HeaderNavbarComponent&#45;&gt;AppModule -->
<g id="edge5" class="edge">
<title>HeaderNavbarComponent&#45;&gt;AppModule</title>
<path fill="none" stroke="black" d="M2070,-85.07C2070,-103.36 2070,-128.8 2070,-128.8 2070,-128.8 1451.91,-128.8 1451.91,-128.8"/>
<polygon fill="black" stroke="black" points="1451.91,-125.3 1441.91,-128.8 1451.91,-132.3 1451.91,-125.3"/>
</g>
<!-- HomeComponent -->
<g id="node6" class="node">
<title>HomeComponent</title>
<polygon fill="#ffffb3" stroke="black" points="1970.55,-84.8 1855.45,-84.8 1855.45,-48.8 1970.55,-48.8 1970.55,-84.8"/>
<text text-anchor="middle" x="1913" y="-62.6" font-family="Times,serif" font-size="14.00">HomeComponent</text>
</g>
<!-- HomeComponent&#45;&gt;AppModule -->
<g id="edge6" class="edge">
<title>HomeComponent&#45;&gt;AppModule</title>
<path fill="none" stroke="black" d="M1913,-84.83C1913,-101.86 1913,-124.8 1913,-124.8 1913,-124.8 1451.98,-124.8 1451.98,-124.8"/>
<polygon fill="black" stroke="black" points="1451.98,-121.3 1441.98,-124.8 1451.98,-128.3 1451.98,-121.3"/>
</g>
<!-- ManchetComponent -->
<g id="node7" class="node">
<title>ManchetComponent</title>
<polygon fill="#ffffb3" stroke="black" points="1837.31,-84.8 1706.69,-84.8 1706.69,-48.8 1837.31,-48.8 1837.31,-84.8"/>
<text text-anchor="middle" x="1772" y="-62.6" font-family="Times,serif" font-size="14.00">ManchetComponent</text>
</g>
<!-- ManchetComponent&#45;&gt;AppModule -->
<g id="edge7" class="edge">
<title>ManchetComponent&#45;&gt;AppModule</title>
<path fill="none" stroke="black" d="M1772,-84.81C1772,-100.85 1772,-121.8 1772,-121.8 1772,-121.8 1451.95,-121.8 1451.95,-121.8"/>
<polygon fill="black" stroke="black" points="1451.95,-118.3 1441.95,-121.8 1451.95,-125.3 1451.95,-118.3"/>
</g>
<!-- NavbarComponent -->
<g id="node8" class="node">
<title>NavbarComponent</title>
<polygon fill="#ffffb3" stroke="black" points="1689.03,-84.8 1566.97,-84.8 1566.97,-48.8 1689.03,-48.8 1689.03,-84.8"/>
<text text-anchor="middle" x="1628" y="-62.6" font-family="Times,serif" font-size="14.00">NavbarComponent</text>
</g>
<!-- NavbarComponent&#45;&gt;AppModule -->
<g id="edge8" class="edge">
<title>NavbarComponent&#45;&gt;AppModule</title>
<path fill="none" stroke="black" d="M1628,-84.92C1628,-99.58 1628,-117.8 1628,-117.8 1628,-117.8 1451.82,-117.8 1451.82,-117.8"/>
<polygon fill="black" stroke="black" points="1451.82,-114.3 1441.82,-117.8 1451.82,-121.3 1451.82,-114.3"/>
</g>
<!-- NewsPageComponent -->
<g id="node9" class="node">
<title>NewsPageComponent</title>
<polygon fill="#ffffb3" stroke="black" points="1549.43,-84.8 1408.57,-84.8 1408.57,-48.8 1549.43,-48.8 1549.43,-84.8"/>
<text text-anchor="middle" x="1479" y="-62.6" font-family="Times,serif" font-size="14.00">NewsPageComponent</text>
</g>
<!-- NewsPageComponent&#45;&gt;AppModule -->
<g id="edge9" class="edge">
<title>NewsPageComponent&#45;&gt;AppModule</title>
<path fill="none" stroke="black" d="M1425.31,-84.91C1425.31,-84.91 1425.31,-103.79 1425.31,-103.79"/>
<polygon fill="black" stroke="black" points="1421.81,-103.79 1425.31,-113.79 1428.81,-103.79 1421.81,-103.79"/>
</g>
<!-- NotFoundComponent -->
<g id="node10" class="node">
<title>NotFoundComponent</title>
<polygon fill="#ffffb3" stroke="black" points="1391.12,-84.8 1252.88,-84.8 1252.88,-48.8 1391.12,-48.8 1391.12,-84.8"/>
<text text-anchor="middle" x="1322" y="-62.6" font-family="Times,serif" font-size="14.00">NotFoundComponent</text>
</g>
<!-- NotFoundComponent&#45;&gt;AppModule -->
<g id="edge10" class="edge">
<title>NotFoundComponent&#45;&gt;AppModule</title>
<path fill="none" stroke="black" d="M1374.61,-84.91C1374.61,-84.91 1374.61,-103.79 1374.61,-103.79"/>
<polygon fill="black" stroke="black" points="1371.11,-103.79 1374.61,-113.79 1378.11,-103.79 1371.11,-103.79"/>
</g>
<!-- PoliticsComponent -->
<g id="node11" class="node">
<title>PoliticsComponent</title>
<polygon fill="#ffffb3" stroke="black" points="1234.84,-84.8 1111.16,-84.8 1111.16,-48.8 1234.84,-48.8 1234.84,-84.8"/>
<text text-anchor="middle" x="1173" y="-62.6" font-family="Times,serif" font-size="14.00">PoliticsComponent</text>
</g>
<!-- PoliticsComponent&#45;&gt;AppModule -->
<g id="edge11" class="edge">
<title>PoliticsComponent&#45;&gt;AppModule</title>
<path fill="none" stroke="black" d="M1173,-84.92C1173,-99.58 1173,-117.8 1173,-117.8 1173,-117.8 1348.1,-117.8 1348.1,-117.8"/>
<polygon fill="black" stroke="black" points="1348.1,-121.3 1358.1,-117.8 1348.1,-114.3 1348.1,-121.3"/>
</g>
<!-- ReadingComponent -->
<g id="node12" class="node">
<title>ReadingComponent</title>
<polygon fill="#ffffb3" stroke="black" points="1092.99,-84.8 965.01,-84.8 965.01,-48.8 1092.99,-48.8 1092.99,-84.8"/>
<text text-anchor="middle" x="1029" y="-62.6" font-family="Times,serif" font-size="14.00">ReadingComponent</text>
</g>
<!-- ReadingComponent&#45;&gt;AppModule -->
<g id="edge12" class="edge">
<title>ReadingComponent&#45;&gt;AppModule</title>
<path fill="none" stroke="black" d="M1029,-84.81C1029,-100.85 1029,-121.8 1029,-121.8 1029,-121.8 1348.16,-121.8 1348.16,-121.8"/>
<polygon fill="black" stroke="black" points="1348.16,-125.3 1358.16,-121.8 1348.16,-118.3 1348.16,-125.3"/>
</g>
<!-- SportsComponent -->
<g id="node13" class="node">
<title>SportsComponent</title>
<polygon fill="#ffffb3" stroke="black" points="946.62,-84.8 829.38,-84.8 829.38,-48.8 946.62,-48.8 946.62,-84.8"/>
<text text-anchor="middle" x="888" y="-62.6" font-family="Times,serif" font-size="14.00">SportsComponent</text>
</g>
<!-- SportsComponent&#45;&gt;AppModule -->
<g id="edge13" class="edge">
<title>SportsComponent&#45;&gt;AppModule</title>
<path fill="none" stroke="black" d="M888,-84.82C888,-102.17 888,-125.8 888,-125.8 888,-125.8 1348.1,-125.8 1348.1,-125.8"/>
<polygon fill="black" stroke="black" points="1348.1,-129.3 1358.1,-125.8 1348.1,-122.3 1348.1,-129.3"/>
</g>
<!-- TechnologyComponent -->
<g id="node14" class="node">
<title>TechnologyComponent</title>
<polygon fill="#ffffb3" stroke="black" points="811.2,-84.8 662.8,-84.8 662.8,-48.8 811.2,-48.8 811.2,-84.8"/>
<text text-anchor="middle" x="737" y="-62.6" font-family="Times,serif" font-size="14.00">TechnologyComponent</text>
</g>
<!-- TechnologyComponent&#45;&gt;AppModule -->
<g id="edge14" class="edge">
<title>TechnologyComponent&#45;&gt;AppModule</title>
<path fill="none" stroke="black" d="M737,-85.02C737,-103.63 737,-129.8 737,-129.8 737,-129.8 1348.28,-129.8 1348.28,-129.8"/>
<polygon fill="black" stroke="black" points="1348.28,-133.3 1358.28,-129.8 1348.28,-126.3 1348.28,-133.3"/>
</g>
<!-- TopicNewsComponent -->
<g id="node15" class="node">
<title>TopicNewsComponent</title>
<polygon fill="#ffffb3" stroke="black" points="644.87,-84.8 499.13,-84.8 499.13,-48.8 644.87,-48.8 644.87,-84.8"/>
<text text-anchor="middle" x="572" y="-62.6" font-family="Times,serif" font-size="14.00">TopicNewsComponent</text>
</g>
<!-- TopicNewsComponent&#45;&gt;AppModule -->
<g id="edge15" class="edge">
<title>TopicNewsComponent&#45;&gt;AppModule</title>
<path fill="none" stroke="black" d="M572,-85.11C572,-104.95 572,-133.8 572,-133.8 572,-133.8 1348.09,-133.8 1348.09,-133.8"/>
<polygon fill="black" stroke="black" points="1348.09,-137.3 1358.09,-133.8 1348.09,-130.3 1348.09,-137.3"/>
</g>
<!-- WorldComponent -->
<g id="node16" class="node">
<title>WorldComponent</title>
<polygon fill="#ffffb3" stroke="black" points="481.6,-84.8 364.4,-84.8 364.4,-48.8 481.6,-48.8 481.6,-84.8"/>
<text text-anchor="middle" x="423" y="-62.6" font-family="Times,serif" font-size="14.00">WorldComponent</text>
</g>
<!-- WorldComponent&#45;&gt;AppModule -->
<g id="edge16" class="edge">
<title>WorldComponent&#45;&gt;AppModule</title>
<path fill="none" stroke="black" d="M423,-85.08C423,-106.12 423,-137.8 423,-137.8 423,-137.8 1348.33,-137.8 1348.33,-137.8"/>
<polygon fill="black" stroke="black" points="1348.33,-141.3 1358.33,-137.8 1348.33,-134.3 1348.33,-141.3"/>
</g>
<!-- AppComponent  -->
<g id="node19" class="node">
<title>AppComponent </title>
<polygon fill="#80b1d3" stroke="black" points="1454.44,-214.8 1345.56,-214.8 1345.56,-178.8 1454.44,-178.8 1454.44,-214.8"/>
<text text-anchor="middle" x="1400" y="-192.6" font-family="Times,serif" font-size="14.00">AppComponent </text>
</g>
<!-- AppModule&#45;&gt;AppComponent  -->
<g id="edge18" class="edge">
<title>AppModule&#45;&gt;AppComponent </title>
<path fill="none" stroke="black" stroke-dasharray="1,5" d="M1400,-149.91C1400,-149.91 1400,-168.79 1400,-168.79"/>
<polygon fill="black" stroke="black" points="1396.5,-168.79 1400,-178.79 1403.5,-168.79 1396.5,-168.79"/>
</g>
<!-- AppRoutingModule -->
<g id="node18" class="node">
<title>AppRoutingModule</title>
<polygon fill="#8dd3c7" stroke="black" points="340.28,-84.8 337.28,-88.8 316.28,-88.8 313.28,-84.8 211.72,-84.8 211.72,-48.8 340.28,-48.8 340.28,-84.8"/>
<text text-anchor="middle" x="276" y="-62.6" font-family="Times,serif" font-size="14.00">AppRoutingModule</text>
</g>
<!-- AppRoutingModule&#45;&gt;AppModule -->
<g id="edge17" class="edge">
<title>AppRoutingModule&#45;&gt;AppModule</title>
<path fill="none" stroke="black" d="M276,-84.96C276,-107.15 276,-141.8 276,-141.8 276,-141.8 1348.33,-141.8 1348.33,-141.8"/>
<polygon fill="black" stroke="black" points="1348.33,-145.3 1358.33,-141.8 1348.33,-138.3 1348.33,-145.3"/>
</g>
<!-- InterceptorService -->
<g id="node20" class="node">
<title>InterceptorService</title>
<ellipse fill="#fdb462" stroke="black" cx="106" cy="-66.8" rx="82.2" ry="18"/>
<text text-anchor="middle" x="106" y="-62.6" font-family="Times,serif" font-size="14.00">InterceptorService</text>
</g>
<!-- InterceptorService&#45;&gt;AppModule -->
<g id="edge19" class="edge">
<title>InterceptorService&#45;&gt;AppModule</title>
<path fill="none" stroke="black" d="M106,-85.12C106,-108.46 106,-145.8 106,-145.8 106,-145.8 1348.05,-145.8 1348.05,-145.8"/>
<polygon fill="black" stroke="black" points="1348.05,-149.3 1358.05,-145.8 1348.05,-142.3 1348.05,-149.3"/>
</g>
<!-- LoginComponent -->
<g id="node21" class="node">
<title>LoginComponent</title>
<polygon fill="#ffffb3" stroke="black" points="3192.27,-84.8 3077.73,-84.8 3077.73,-48.8 3192.27,-48.8 3192.27,-84.8"/>
<text text-anchor="middle" x="3135" y="-62.6" font-family="Times,serif" font-size="14.00">LoginComponent</text>
</g>
<!-- AuthModule -->
<g id="node23" class="node">
<title>AuthModule</title>
<polygon fill="#8dd3c7" stroke="black" points="3039.55,-149.8 3036.55,-153.8 3015.55,-153.8 3012.55,-149.8 2952.45,-149.8 2952.45,-113.8 3039.55,-113.8 3039.55,-149.8"/>
<text text-anchor="middle" x="2996" y="-127.6" font-family="Times,serif" font-size="14.00">AuthModule</text>
</g>
<!-- LoginComponent&#45;&gt;AuthModule -->
<g id="edge20" class="edge">
<title>LoginComponent&#45;&gt;AuthModule</title>
<path fill="none" stroke="black" d="M3135,-84.91C3135,-104.14 3135,-131.8 3135,-131.8 3135,-131.8 3049.6,-131.8 3049.6,-131.8"/>
<polygon fill="black" stroke="black" points="3049.6,-128.3 3039.6,-131.8 3049.6,-135.3 3049.6,-128.3"/>
</g>
<!-- RegisterComponent -->
<g id="node22" class="node">
<title>RegisterComponent</title>
<polygon fill="#ffffb3" stroke="black" points="3059.99,-84.8 2932.01,-84.8 2932.01,-48.8 3059.99,-48.8 3059.99,-84.8"/>
<text text-anchor="middle" x="2996" y="-62.6" font-family="Times,serif" font-size="14.00">RegisterComponent</text>
</g>
<!-- RegisterComponent&#45;&gt;AuthModule -->
<g id="edge21" class="edge">
<title>RegisterComponent&#45;&gt;AuthModule</title>
<path fill="none" stroke="black" d="M2996,-84.91C2996,-84.91 2996,-103.79 2996,-103.79"/>
<polygon fill="black" stroke="black" points="2992.5,-103.79 2996,-113.79 2999.5,-103.79 2992.5,-103.79"/>
</g>
<!-- AuthRoutingModule -->
<g id="node24" class="node">
<title>AuthRoutingModule</title>
<polygon fill="#8dd3c7" stroke="black" points="2908.17,-84.8 2905.17,-88.8 2884.17,-88.8 2881.17,-84.8 2775.83,-84.8 2775.83,-48.8 2908.17,-48.8 2908.17,-84.8"/>
<text text-anchor="middle" x="2842" y="-62.6" font-family="Times,serif" font-size="14.00">AuthRoutingModule</text>
</g>
<!-- AuthRoutingModule&#45;&gt;AuthModule -->
<g id="edge22" class="edge">
<title>AuthRoutingModule&#45;&gt;AuthModule</title>
<path fill="none" stroke="black" d="M2842,-84.95C2842,-108.56 2842,-146.8 2842,-146.8 2842,-146.8 2942.28,-146.8 2942.28,-146.8"/>
<polygon fill="black" stroke="black" points="2942.28,-150.3 2952.28,-146.8 2942.28,-143.3 2942.28,-150.3"/>
</g>
</g>
</svg>
